<svg width="269" height="54" viewBox="0 0 269 54" fill="none" xmlns="http://www.w3.org/2000/svg">
<path d="M68.1281 28.0273C59.5193 28.8898 50.7346 40.9264 50.7346 40.9264C50.0115 41.9149 48.9366 42.5255 47.8421 42.574C47.1874 42.5933 45.9367 42.4867 44.852 41.4304L42.8684 39.5018C42.7706 39.3952 42.7609 39.2401 42.8684 39.1335L52.0537 30.0237C54.4282 27.6687 55.7377 24.5191 55.7377 21.1756C55.7377 17.8321 54.4282 14.6824 52.0537 12.3274L43.3178 3.66337C40.8456 1.21147 37.5916 -0.00963407 34.3475 5.72321e-05H34.3377C31.0935 -0.00963407 27.8395 1.21147 25.3673 3.66337L16.6314 12.3274C14.2569 14.6824 12.9475 17.8224 12.9475 21.1756C12.9475 24.5287 14.2569 27.6687 16.6314 30.0237L25.8168 39.1335C25.9243 39.2401 25.9145 39.3952 25.8168 39.5018L23.8331 41.4304C22.7485 42.4867 21.4977 42.5933 20.843 42.574C19.7486 42.5255 18.6737 41.9149 17.9506 40.9264C17.9506 40.9264 9.15606 28.8898 0.556986 28.0273C0.254064 27.9885 0 28.2308 0 28.5313L0.0781734 39.1723C0.0781734 39.3855 0.214977 39.5697 0.420182 39.6472C1.6221 40.0833 2.80447 41.004 3.69369 41.8083C5.67734 43.5915 8.63816 47.6522 8.63816 47.6522C11.4524 51.4899 15.7226 53.7965 20.3642 54C20.5792 54 20.7941 54 21.0189 54C25.0546 54 29.0317 52.3912 31.9143 49.5905L34.3572 47.2161L36.8001 49.5905C39.6828 52.3912 43.6599 54 47.6956 54C47.9203 54 48.1353 54 48.3503 54C52.9918 53.7965 57.262 51.4899 60.0763 47.6522C60.0763 47.6522 63.0371 43.5915 65.0207 41.8083C65.91 41.004 67.0923 40.0833 68.2943 39.6472C68.4995 39.5697 68.6363 39.3855 68.6363 39.1723L68.7144 28.5313C68.7144 28.2308 68.4604 27.9885 68.1575 28.0273H68.1281ZM35.9989 29.3744C35.5396 29.8299 34.9435 30.0431 34.3377 30.0528C33.7318 30.0625 33.1358 29.8299 32.6765 29.3744L25.9438 22.6971C25.035 21.7958 25.035 20.3227 25.9438 19.4214L32.6179 12.812C33.0869 12.3371 33.7123 12.1433 34.3377 12.1336H34.3475C34.9631 12.1336 35.5885 12.3468 36.0673 12.812L42.7413 19.4214C43.6501 20.3227 43.6501 21.7958 42.7413 22.6971L36.0086 29.3744H35.9989Z" fill="#6651E3"/>
<path d="M147.124 1.62158H139.218C138.132 1.62158 137.255 2.4985 137.259 3.58022L137.291 11.5289C137.296 12.6106 138.18 13.4875 139.266 13.4875H147.172C148.259 13.4875 149.136 12.6106 149.131 11.5289L149.099 3.58022C149.095 2.4985 148.21 1.62158 147.124 1.62158Z" fill="white"/>
<path d="M227.776 1.62158H219.87C218.783 1.62158 217.906 2.4985 217.911 3.58022L217.943 11.5289C217.947 12.6106 218.832 13.4875 219.918 13.4875H227.824C228.91 13.4875 229.787 12.6106 229.783 11.5289L229.751 3.58022C229.746 2.4985 228.862 1.62158 227.776 1.62158Z" fill="white"/>
<path d="M76.1345 2.91565H89.3528L102.976 35.9651L116.609 2.91565H129.895V51.1973H117.843V25.7688H117.506L107.44 51.1973H98.6085L88.5429 25.7688H88.2055V51.1973H76.1538V2.91565H76.1345Z" fill="white"/>
<path d="M137.299 15.8406H149.149V51.2069H137.299V15.8406Z" fill="white"/>
<path d="M177.6 31.2732C177.6 27.3287 175.199 25.5575 172.596 25.5575C169.858 25.5575 167.39 27.3287 167.39 31.2732V51.1966H155.541V15.8399H167.39V19.9184C169.309 17.0654 172.529 15.1602 177.051 15.1602C181.09 15.1602 184.581 16.7877 186.846 20.3971C189.102 17.3335 193.007 15.1602 198.348 15.1602C205.946 15.1602 211.432 19.9184 211.432 30.9381V51.2062H199.582V31.2828C199.582 27.3383 197.249 25.5671 194.656 25.5671C191.783 25.5671 189.382 27.3383 189.382 31.2828V51.2062H177.6V31.2828V31.2732Z" fill="white"/>
<path d="M217.978 15.8406H229.827V51.2069H217.978V15.8406Z" fill="white"/>
<path d="M234.484 33.4469C234.484 21.4794 244 15.151 253.593 15.151C259.889 15.151 265.374 18.004 269 23.8538L260.438 29.4258C258.867 27.4536 256.668 25.6824 253.593 25.6824C249.486 25.6824 246.13 28.8131 246.13 33.4373C246.13 38.0616 249.486 41.3263 253.593 41.3263C256.678 41.3263 258.867 39.5551 260.438 37.5829L269 43.1549C265.374 48.8706 259.889 51.8577 253.593 51.8577C244.009 51.8577 234.484 45.5293 234.484 33.4277V33.4469Z" fill="white"/>
</svg>
